<svg width="25" height="24" viewBox="0 0 25 24" fill="none" xmlns="http://www.w3.org/2000/svg">
<path d="M19.8847 9.44338C19.8847 9.06728 19.8386 9.00098 19.7409 9.00098C19.6431 9.00098 19.5966 9.06728 19.5966 9.44338C19.5966 9.81973 19.6429 9.88603 19.7409 9.88603C19.8384 9.88603 19.8847 9.81973 19.8847 9.44338Z" fill="white"/>
<path d="M19.5551 10.5874C19.5551 10.2113 19.5085 10.1445 19.4108 10.1445C19.3135 10.1445 19.2667 10.2108 19.2667 10.5874C19.2667 10.964 19.3128 11.0306 19.4108 11.0306C19.5085 11.0306 19.5551 10.964 19.5551 10.5874Z" fill="white"/>
<path d="M19.2559 9.44338C19.2559 9.06728 19.2098 9.00098 19.1121 9.00098C19.0143 9.00098 18.968 9.06728 18.968 9.44338C18.968 9.81973 19.0141 9.88603 19.1121 9.88603C19.2096 9.88603 19.2559 9.81973 19.2559 9.44338Z" fill="white"/>
<path d="M21.3768 13.0736V6H19.0534V7.74549C18.8226 7.77816 18.3977 7.87249 18.3977 8.12184C18.3977 8.39948 18.9391 8.52623 19.4422 8.52623C19.945 8.52623 20.4866 8.39996 20.4866 8.12184C20.4866 7.85421 20.0157 7.76475 19.7661 7.73623V6.80779H20.6643V12.1189C20.4701 11.9609 20.2202 11.8619 19.944 11.8619C19.6052 11.8619 19.294 12.0048 19.0846 12.251C18.8752 12.005 18.5637 11.8619 18.2254 11.8619C17.9029 11.8619 17.1758 11.9936 16.9664 12.2195C16.757 11.9936 16.4538 11.8619 16.1313 11.8619C15.793 11.8619 15.0578 12.0048 14.8482 12.251C14.5633 11.9161 13.2285 11.772 12.7758 11.9219C12.3232 11.7718 10.9884 11.9163 10.7035 12.251C10.4941 12.0053 10.1828 11.8619 9.84426 11.8619C9.52178 11.8619 9.2188 11.9933 9.00942 12.2193C8.80004 11.9933 8.49681 11.8619 8.17433 11.8619C7.83576 11.8619 7.52425 12.005 7.31487 12.251C7.10549 12.0053 6.79422 11.8619 6.45541 11.8619C5.95255 11.8619 5.53135 12.1808 5.39607 12.6132C4.89443 12.472 4.19706 12.2812 3.22353 12.0214C2.83938 11.9226 2.44255 12.153 2.3431 12.5167C2.29045 12.7095 2.39551 12.9827 2.44499 13.0948C2.26023 13.478 2.16663 13.8846 2.16663 14.3043V15.9945C2.16663 16.7423 2.46522 17.4224 2.94931 17.936H20.8835C21.368 17.4224 21.6666 16.7421 21.6666 15.994V14.3043C21.6666 13.8778 21.5684 13.4641 21.3768 13.0736ZM20.6641 12.9912H6.63335C6.5417 12.9527 6.29307 12.8686 5.59863 12.6709C5.7088 12.3273 6.04883 12.074 6.45492 12.074C6.77301 12.074 7.06088 12.2281 7.22493 12.4859L7.31438 12.6261L7.40384 12.4859C7.56813 12.2278 7.856 12.074 8.17385 12.074C8.47561 12.074 8.75543 12.2139 8.9224 12.4482L9.00869 12.5693L9.09498 12.4482C9.26194 12.2139 9.54177 12.074 9.84353 12.074C10.1614 12.074 10.4493 12.2281 10.6135 12.4859L10.703 12.6261L10.7925 12.4859C11.0133 12.1386 12.3171 11.9792 12.7388 12.134L12.7754 12.1474L12.8119 12.134C13.2334 11.9797 14.5372 12.1391 14.758 12.4859L14.8475 12.6263L14.9369 12.4859C15.101 12.2278 15.8127 12.074 16.1303 12.074C16.4321 12.074 16.7122 12.2139 16.8791 12.4484L16.9654 12.5695L17.052 12.4484C17.2189 12.2139 17.9224 12.074 18.2244 12.074C18.5425 12.074 18.8301 12.2281 18.9944 12.4859L19.0834 12.6261L19.1731 12.4859C19.3374 12.2278 19.625 12.074 19.9431 12.074C20.239 12.074 20.4998 12.2095 20.6634 12.4148V12.9912H20.6641Z" fill="white"/>
</svg>
