<svg width="19" height="18" viewBox="0 0 19 18" fill="none" xmlns="http://www.w3.org/2000/svg">
<path d="M12.7729 8.26614C12.9039 8.23114 13 8.11598 13 7.98098V3.81106C13 3.11106 12.52 2.5011 11.84 2.3511L1.83997 0.0410415C0.899966 -0.178958 0 0.541002 0 1.501V16.001C0 16.081 9.76585e-06 16.161 0.0100098 16.231C0.0800098 17.331 0.67002 17.921 1.77002 17.991C1.84002 18.001 1.92 18.001 2 18.001H4.19995C4.36595 18.001 4.5 17.867 4.5 17.701V14.1079C4.5 13.1119 5.18094 12.1881 6.16394 12.0281C7.41694 11.8241 8.5 12.786 8.5 14.001V17.701C8.5 17.867 8.63405 18.001 8.80005 18.001H10.3669C10.6299 18.001 10.7531 17.6971 10.5811 17.4981C10.2051 17.0631 10 16.549 10 15.971V11.031C10 9.71703 11.0559 8.71614 12.7729 8.26614ZM5 9.75003H4C3.586 9.75003 3.25 9.41403 3.25 9.00003C3.25 8.58603 3.586 8.25003 4 8.25003H5C5.414 8.25003 5.75 8.58603 5.75 9.00003C5.75 9.41403 5.414 9.75003 5 9.75003ZM5 6.75003H4C3.586 6.75003 3.25 6.41403 3.25 6.00003C3.25 5.58603 3.586 5.25003 4 5.25003H5C5.414 5.25003 5.75 5.58603 5.75 6.00003C5.75 6.41403 5.414 6.75003 5 6.75003ZM9 9.75003H8C7.586 9.75003 7.25 9.41403 7.25 9.00003C7.25 8.58603 7.586 8.25003 8 8.25003H9C9.414 8.25003 9.75 8.58603 9.75 9.00003C9.75 9.41403 9.414 9.75003 9 9.75003ZM9 6.75003H8C7.586 6.75003 7.25 6.41403 7.25 6.00003C7.25 5.58603 7.586 5.25003 8 5.25003H9C9.414 5.25003 9.75 5.58603 9.75 6.00003C9.75 6.41403 9.414 6.75003 9 6.75003ZM15 16.46C16.74 16.46 18.13 16.0401 19 15.3401V15.97C19 17.33 17 18 15 18C13 18 11 17.33 11 15.97V15.3401C11.87 16.0401 13.26 16.46 15 16.46ZM15 14.0601C16.74 14.0601 18.13 13.64 19 12.94V13.43C19 14.8 17 15.46 15 15.46C13 15.46 11 14.8 11 13.43V12.94C11.88 13.64 13.27 14.0601 15 14.0601ZM15 9.00003C17 9.00003 19 9.68005 19 11.0301C19 12.3901 17 13.0601 15 13.0601C13 13.0601 11 12.3901 11 11.0301C11 9.68005 13 9.00003 15 9.00003Z" fill="#0D0E0F"/>
</svg>
