<svg width="25" height="24" viewBox="0 0 25 24" fill="none" xmlns="http://www.w3.org/2000/svg">
<path d="M5.55003 8.9105L6.62812 13.6148H12.0977H17.5677L18.6451 8.91137C18.6917 8.38605 19.0332 7.94593 19.5027 7.7568C18.8131 6.69984 17.6217 6 16.2656 6C16.2656 6 13.1291 6.25689 12.0835 6.25689C11.0453 6.25689 7.9302 6 7.9302 6C6.57387 6 5.38291 6.70006 4.69287 7.75702C5.16198 7.94614 5.50318 8.38562 5.55003 8.9105Z" fill="white"/>
<path d="M21.8334 9.85846C21.8334 9.15949 21.1865 8.59277 20.3888 8.59277C19.6345 8.59277 19.0159 9.09914 18.9503 9.74538L17.8204 14.0669H6.3468L5.2162 9.74451C5.1504 9.09914 4.53183 8.59277 3.77795 8.59277C2.98027 8.59277 2.33337 9.15949 2.33337 9.85846C2.33337 9.92906 2.34165 9.99791 2.35429 10.0652L4.27233 17.4827L4.33551 17.4696V17.4827H19.9317V17.34L21.8334 10.0696C21.8334 10.0696 21.8334 9.92906 21.8334 9.85846Z" fill="white"/>
</svg>
