<svg width="32" height="40" viewBox="0 0 32 40" fill="none" xmlns="http://www.w3.org/2000/svg">
<g id="Group">
<path id="Vector" d="M10.8204 17.1631C7.58131 17.4584 4.89893 19.6564 3.88037 22.627H13.8412C12.4974 20.652 10.8397 18.0437 10.8204 17.1631Z" fill="white"/>
<path id="Vector_2" d="M20.6959 17.1631C20.6761 18.0441 18.8594 20.6525 17.3855 22.6275H27.6346C26.6156 19.6568 23.9332 17.4588 20.6959 17.1631Z" fill="white"/>
<path id="Vector_3" d="M16.3124 20.4652C16.8845 20.1695 17.327 19.5547 17.327 18.9297C17.327 18.9297 16.4764 19.3056 15.6098 19.3056C14.7433 19.3056 13.8927 18.9297 13.8927 18.9297C13.8927 19.5547 14.3352 20.1695 14.9073 20.4652L14.7561 22.6271H16.4636L16.3124 20.4652Z" fill="white"/>
<path id="Vector_4" d="M27.9834 39.1387H3.53086C3.29285 39.1387 3.09937 39.3317 3.09937 39.5697C3.09937 39.8077 3.29285 39.9999 3.53086 39.9999H27.9834C28.2219 39.9999 28.4145 39.8077 28.4145 39.5697C28.4145 39.3317 28.2219 39.1387 27.9834 39.1387Z" fill="white"/>
<path id="Vector_5" d="M4.98434 38.7851H26.5289C27.5391 38.7851 28.3602 37.964 28.3584 36.9715L30.5141 24.4578C30.5141 23.4476 29.693 22.627 28.6837 22.627H27.6347H17.3856H16.4636H14.7561H13.8411H3.88028H2.82998C1.81979 22.627 0.99824 23.4476 1 24.4763L3.15305 36.9543C3.15305 37.964 3.97459 38.7851 4.98434 38.7851ZM2.82998 22.8425H28.6837C29.574 22.8425 30.2995 23.5675 30.3012 24.4402L28.1455 36.9543C28.1455 37.8446 27.4201 38.5705 26.5289 38.5705H4.98434C4.09316 38.5705 3.36813 37.8446 3.36681 36.9362L1.21421 24.4578C1.21376 23.5675 1.93835 22.8425 2.82998 22.8425Z" fill="white" stroke="white" stroke-width="1.5"/>
<path id="Vector_6" d="M15.7566 31.2646C16.185 31.2646 16.5315 30.9186 16.5315 30.4893C16.5315 30.0631 16.185 29.7158 15.7566 29.7158C15.3287 29.7158 14.9818 30.0631 14.9818 30.4893C14.9823 30.9186 15.3291 31.2646 15.7566 31.2646Z" fill="white" stroke="white"/>
<path id="Vector_7" d="M8.18107 12.6294C8.36971 12.6294 8.54777 12.5179 8.70644 12.3253C9.08019 12.7559 9.55531 13.1296 10.1296 13.4223C10.1957 13.4562 10.2676 13.48 10.3354 13.5113C11.3893 16.303 13.4207 18.1964 15.7575 18.1964C18.8802 18.1964 21.4563 14.8168 21.8799 10.4274C22.02 11.6963 22.485 12.6298 23.0382 12.6298C23.7024 12.6298 24.241 11.2869 24.241 9.63098C24.241 8.22235 23.8505 7.0438 23.3255 6.72162C22.255 3.01671 19.2037 0.333008 15.6103 0.333008C12.016 0.333008 8.96427 3.01671 7.89326 6.72162C7.36877 7.0438 6.97827 8.22235 6.97827 9.63142C6.97827 11.2864 7.5173 12.6294 8.18107 12.6294ZM21.1597 10.181C20.8613 14.1535 18.5571 17.2444 15.7575 17.2444C13.9174 17.2444 12.295 15.905 11.3117 13.8613C11.8741 14.0107 12.4664 14.0953 13.0782 14.0953C13.2355 14.0953 13.3946 14.0852 13.5538 14.0746C13.7574 14.3496 14.102 14.5047 14.4621 14.4426C14.9712 14.3544 15.3119 13.8705 15.2242 13.3619C15.136 12.8528 14.6521 12.5121 14.1435 12.6003C13.8226 12.6558 13.5696 12.8687 13.4475 13.1455C12.5224 13.1984 11.6317 13.0551 10.8582 12.7263C10.6188 11.9956 10.4487 11.2066 10.3716 10.3732C10.614 10.434 10.9115 10.5513 11.235 10.7774C11.235 10.7774 10.6197 7.1271 11.9181 6.61495C11.9181 6.61495 16.2198 8.70673 19.1124 6.61495C19.1124 6.61495 20.8291 9.33127 20.3474 10.3988L21.221 9.39518C21.2166 9.66227 21.1967 9.92451 21.1597 10.181ZM15.6103 1.73458C18.7475 1.73458 21.3823 4.27239 22.1227 7.68817C22.0478 7.90766 21.9848 8.1536 21.9381 8.42069C21.9288 8.33254 21.9222 8.24395 21.9094 8.15712C21.4546 5.01152 18.8731 2.60197 15.7575 2.60197C12.641 2.60197 10.0591 5.01329 9.60423 8.15933C9.55751 8.48372 9.53327 8.81604 9.53327 9.15365C9.53327 9.2916 9.53856 9.42691 9.54606 9.56266C9.55751 9.76012 9.57647 9.95581 9.60423 10.148C9.60908 10.2066 9.61349 10.2652 9.61878 10.3234C9.67652 10.9739 9.78626 11.5993 9.93347 12.1983C9.61525 11.9572 9.35389 11.6818 9.15688 11.3772C9.2988 10.8849 9.38342 10.2828 9.38342 9.6301C9.38342 8.88876 9.275 8.21178 9.09694 7.68861C9.83651 4.27239 12.4722 1.73458 15.6103 1.73458Z" fill="white"/>
</g>
</svg>
