<svg width="48" height="31" viewBox="0 0 48 31" fill="none" xmlns="http://www.w3.org/2000/svg">
<g id="Group">
<path id="Vector" d="M13.6985 0.666992C6.50121 0.666834 0.666434 4.92136 0.666687 10.1695C0.669093 12.7468 2.10717 15.2129 4.65123 17.0022L4.64814 17.0085L2.37835 19.9981C2.27738 20.1312 2.22311 20.2939 2.22394 20.4609C2.22478 20.628 2.28051 20.7901 2.3828 20.9221C2.48509 21.0542 2.62807 21.1488 2.7896 21.1914C2.95113 21.234 3.12231 21.2222 3.27641 21.1577L8.61433 18.9201V18.9137C10.2222 19.4124 11.9512 19.6703 13.6985 19.672C16.2401 19.6717 18.6096 19.1408 20.6142 18.2232C20.5483 18.6242 20.5125 19.0325 20.5125 19.4474C20.5124 22.258 22.0776 24.7809 24.5342 26.5723C26.9908 28.3638 30.3466 29.4556 34.0443 29.4558C35.759 29.4542 37.449 29.1807 39.0423 28.7115L44.2725 30.9029C44.8357 31.1388 45.4454 30.9219 45.7612 30.5138C46.0769 30.1064 46.1365 29.4593 45.7676 28.973L43.7453 26.3109C46.1174 24.4755 47.5782 22.0506 47.5807 19.4474C47.5808 16.6366 46.0161 14.1124 43.5592 12.3209C41.1023 10.5294 37.7424 9.44351 34.0445 9.44361C31.3286 9.44376 28.7982 10.0298 26.672 11.0506C26.7087 10.7603 26.729 10.4666 26.729 10.1695C26.7292 4.92183 20.8953 0.667467 13.6985 0.666992ZM7.80227 7.00298H20.0653C20.1237 7.00251 20.1815 7.0136 20.2356 7.03554C20.2897 7.05748 20.3389 7.08982 20.3805 7.13082C20.4221 7.17182 20.4552 7.22061 20.4779 7.27441C20.5006 7.32821 20.5124 7.38599 20.5127 7.44437C20.5132 7.50328 20.502 7.56167 20.4797 7.61618C20.4573 7.67069 20.4245 7.72024 20.3828 7.76189C20.3412 7.80355 20.2916 7.83649 20.2371 7.85881C20.1826 7.88113 20.1242 7.89234 20.0653 7.89186H7.80227C7.74375 7.89173 7.68599 7.88005 7.63201 7.85746C7.57803 7.83487 7.52901 7.80184 7.48784 7.76025C7.44668 7.71866 7.41402 7.66933 7.39199 7.61512C7.36995 7.56091 7.35885 7.50289 7.35933 7.44437C7.36 7.32725 7.407 7.21513 7.48997 7.13246C7.57293 7.04979 7.68514 7.00324 7.80227 7.00298ZM7.80227 9.50207H20.0653C20.1237 9.50159 20.1815 9.51259 20.2356 9.53453C20.2897 9.55647 20.3389 9.5889 20.3805 9.6299C20.4221 9.6709 20.4552 9.71969 20.4779 9.77349C20.5006 9.82729 20.5124 9.88508 20.5127 9.94346C20.5132 10.0024 20.502 10.0608 20.4797 10.1153C20.4573 10.1698 20.4243 10.2192 20.3826 10.2609C20.341 10.3025 20.2916 10.3355 20.2371 10.3578C20.1826 10.3801 20.1242 10.3914 20.0653 10.3909H7.80227C7.74375 10.3908 7.68599 10.379 7.63201 10.3564C7.57803 10.3339 7.52901 10.3008 7.48784 10.2592C7.44668 10.2177 7.41402 10.1684 7.39199 10.1142C7.36995 10.06 7.35886 10.002 7.35933 9.94346C7.36 9.82634 7.407 9.71422 7.48997 9.63155C7.57293 9.54887 7.68514 9.50233 7.80227 9.50207ZM34.0445 10.4494C37.5438 10.4493 40.7059 11.4868 42.9655 13.1345C45.2252 14.7822 46.5751 17.0101 46.575 19.4474C46.5728 21.8376 45.2416 24.1542 42.8026 25.8696C42.703 25.9387 42.6316 26.0415 42.6016 26.159C42.5717 26.2765 42.5852 26.4008 42.6395 26.5092L42.6459 26.5156C42.6591 26.5421 42.6745 26.5672 42.6921 26.5909L44.965 29.5836C45.0653 29.7156 45.0368 29.7986 44.965 29.891C44.8934 29.9838 44.8167 30.0367 44.6635 29.9724L39.6348 27.8624V28.1946C39.6352 28.1152 39.6167 28.0367 39.581 27.9657C39.5454 27.8947 39.4934 27.8332 39.4293 27.7861C39.3653 27.739 39.2911 27.7077 39.2127 27.6948C39.1343 27.6819 39.0538 27.6877 38.9781 27.7118C37.4209 28.1948 35.7426 28.4484 34.0447 28.45C30.5455 28.4498 27.3873 27.4064 25.128 25.7586C22.8686 24.111 21.5187 21.8844 21.5188 19.4473C21.5187 17.0102 22.8686 14.7821 25.128 13.1344C27.3873 11.4867 30.5454 10.4496 34.0445 10.4494ZM7.80227 12.0011H20.0653C20.1242 12.0006 20.1826 12.0119 20.2371 12.0342C20.2916 12.0565 20.341 12.0895 20.3826 12.1311C20.4243 12.1728 20.4573 12.2222 20.4797 12.2767C20.502 12.3312 20.5132 12.3896 20.5127 12.4485C20.5124 12.5069 20.5006 12.5647 20.4779 12.6185C20.4552 12.6723 20.4221 12.7211 20.3805 12.7621C20.3389 12.8031 20.2897 12.8355 20.2356 12.8575C20.1815 12.8794 20.1237 12.8904 20.0653 12.8899H7.80227C7.68514 12.8897 7.57293 12.8431 7.48997 12.7605C7.407 12.6778 7.35999 12.5657 7.35933 12.4485C7.35886 12.39 7.36995 12.332 7.39199 12.2778C7.41402 12.2236 7.44668 12.1742 7.48784 12.1327C7.52901 12.0911 7.57803 12.058 7.63201 12.0355C7.68599 12.0129 7.74375 12.0012 7.80227 12.0011ZM27.6807 16.2824C27.6224 16.282 27.5644 16.2931 27.5103 16.315C27.4562 16.3369 27.4069 16.3694 27.3654 16.4104C27.3238 16.4514 27.2908 16.5001 27.2681 16.5539C27.2455 16.6077 27.2335 16.6655 27.2332 16.7238C27.2327 16.7827 27.2441 16.8411 27.2664 16.8956C27.2887 16.9502 27.3216 16.9997 27.3632 17.0414C27.4049 17.083 27.4544 17.116 27.5089 17.1383C27.5635 17.1606 27.6218 17.1718 27.6807 17.1713H39.9436C40.0021 17.1712 40.0601 17.1595 40.114 17.1369C40.168 17.1143 40.2171 17.0813 40.2582 17.0397C40.2994 16.9981 40.3318 16.9488 40.3539 16.8946C40.3759 16.8404 40.387 16.7824 40.3865 16.7238C40.3859 16.6067 40.3389 16.4946 40.2559 16.4119C40.1729 16.3293 40.0607 16.2827 39.9436 16.2824H27.6807ZM27.6807 18.7815C27.6224 18.7811 27.5644 18.7921 27.5103 18.814C27.4562 18.8359 27.4069 18.8684 27.3654 18.9094C27.3238 18.9504 27.2908 18.9992 27.2681 19.053C27.2455 19.1068 27.2335 19.1644 27.2332 19.2228C27.2327 19.2817 27.2441 19.3401 27.2664 19.3946C27.2887 19.4491 27.3216 19.4987 27.3632 19.5403C27.4049 19.582 27.4544 19.6149 27.5089 19.6373C27.5635 19.6596 27.6218 19.6709 27.6807 19.6704H39.9436C40.0021 19.6703 40.0601 19.6585 40.114 19.6359C40.168 19.6133 40.2171 19.5803 40.2582 19.5387C40.2994 19.4971 40.3318 19.4478 40.3539 19.3936C40.3759 19.3394 40.387 19.2813 40.3865 19.2228C40.3859 19.1057 40.3389 18.9937 40.2559 18.911C40.1729 18.8283 40.0607 18.7818 39.9436 18.7815H27.6807ZM27.6807 21.2805C27.6218 21.28 27.5635 21.2913 27.5089 21.3137C27.4544 21.336 27.4049 21.3689 27.3632 21.4106C27.3216 21.4522 27.2887 21.5017 27.2664 21.5562C27.2441 21.6107 27.2327 21.6691 27.2332 21.728C27.2335 21.7864 27.2455 21.8442 27.2681 21.898C27.2908 21.9518 27.3238 22.0006 27.3654 22.0416C27.4069 22.0826 27.4562 22.1149 27.5103 22.1368C27.5644 22.1588 27.6224 22.1699 27.6807 22.1694H39.9436C40.0607 22.1691 40.1729 22.1226 40.2559 22.0399C40.3389 21.9573 40.3859 21.8451 40.3865 21.728C40.387 21.6695 40.3759 21.6115 40.3539 21.5573C40.3318 21.5031 40.2994 21.4538 40.2582 21.4122C40.2171 21.3706 40.168 21.3375 40.114 21.3149C40.0601 21.2923 40.0021 21.2807 39.9436 21.2805H27.6807Z" fill="white"/>
</g>
</svg>
