<svg width="32" height="48" viewBox="0 0 32 48" fill="none" xmlns="http://www.w3.org/2000/svg">
<g id="Group">
<path id="Vector" d="M14.0913 26.6312V24.8609C14.0913 22.4513 16.0583 20.5335 18.4186 20.5335C19.5988 20.5335 20.6807 20.9761 21.5166 21.8121C21.91 22.2055 22.2543 22.6972 22.451 23.2381C25.008 20.8777 26.6308 17.4355 26.6308 13.6491C26.6308 6.46959 20.8282 0.666992 13.6487 0.666992C6.46923 0.666992 0.666626 6.46959 0.666626 13.6491C0.666626 20.8286 6.46923 26.6312 13.6487 26.6312C13.7962 26.6312 13.9438 26.6312 14.0913 26.6312ZM12.321 18.3207C11.9276 18.3207 11.485 18.1731 11.19 17.8781L7.74776 14.4359C7.1085 13.7966 7.1085 12.8131 7.74776 12.1738C8.38703 11.5346 9.37053 11.5346 10.0098 12.1738L12.2718 14.4359L17.2385 9.46924C17.8777 8.82997 18.8612 8.82997 19.5005 9.46924C20.1398 10.1085 20.1398 11.092 19.5005 11.7313L13.4028 17.8781C13.1078 18.1731 12.7144 18.3207 12.321 18.3207Z" fill="white"/>
<path id="Vector_2" d="M31.7448 35.04C31.7448 33.909 30.8105 33.0239 29.7286 33.0239C28.991 33.0239 28.3517 33.4173 28.0075 33.9582V33.909C28.0075 32.778 27.0732 31.8928 25.9914 31.8928C25.2537 31.8928 24.6145 32.2862 24.2703 32.8272V32.778C24.2703 31.647 23.3359 30.7618 22.2541 30.7618C21.5165 30.7618 20.8772 31.1552 20.533 31.6961V24.8609C20.533 24.32 20.3363 23.779 19.9429 23.4348C19.5495 23.0414 19.0577 22.8447 18.5168 22.8447C17.3858 22.8447 16.5007 23.779 16.5007 24.8609V37.4496C16.5007 37.5479 16.4515 37.6463 16.304 37.6954C16.2056 37.7446 16.0581 37.6954 16.0089 37.6463L13.9436 35.5809C13.2551 34.8925 12.1241 34.7941 11.3373 35.3351C10.8456 35.6793 10.5505 36.171 10.4522 36.7611C10.3538 37.3512 10.5505 37.9413 10.8948 38.3839L16.0581 44.5799C17.5333 46.3502 19.6478 47.3337 21.959 47.3337H25.057C26.8273 47.3337 28.5484 46.6452 29.827 45.3667C31.1055 44.0881 31.794 42.4162 31.794 40.5967L31.7448 35.04Z" fill="white"/>
</g>
</svg>
