<svg width="18" height="18" viewBox="0 0 18 18" fill="none" xmlns="http://www.w3.org/2000/svg">
<path fill-rule="evenodd" clip-rule="evenodd" d="M16.5699 5.58608L10.606 0.584982C9.67696 -0.194018 8.32194 -0.194018 7.39294 0.584982L1.42896 5.58608C0.522955 6.34608 -0.000976562 6.65302 -0.000976562 8.65102V15C-0.000976562 17 0.999023 18 2.99902 18H14.999C16.999 18 17.999 17 17.999 15V8.65102C18 6.65202 17.4769 6.34608 16.5699 5.58608ZM13.53 10.33L11.295 12.565C10.691 13.169 9.70896 13.1691 9.10596 12.5661L7.83496 11.297L5.53101 13.5291C5.38501 13.6751 5.19298 13.749 5.00098 13.749C4.80898 13.749 4.61695 13.6761 4.47095 13.5291C4.17795 13.2361 4.17795 12.761 4.47095 12.468L6.703 10.236C7.308 9.63298 8.29104 9.63201 8.89404 10.235L10.165 11.5041L12.4709 9.26906C12.7639 8.97606 13.239 8.97606 13.532 9.26906C13.825 9.56207 13.823 10.037 13.53 10.33Z" fill="#0D0E0F"/>
</svg>
