<svg width="39" height="40" viewBox="0 0 39 40" fill="none" xmlns="http://www.w3.org/2000/svg">
<g id="1">
<path id="Vector" d="M38.9143 39.4107C38.9143 39.5669 38.8522 39.7167 38.7418 39.8272C38.6313 39.9376 38.4815 39.9997 38.3253 39.9997H1.06625C0.910041 39.9997 0.760231 39.9376 0.649776 39.8272C0.53932 39.7167 0.477267 39.5669 0.477267 39.4107C0.477267 39.2545 0.53932 39.1047 0.649776 38.9942C0.760231 38.8838 0.910041 38.8217 1.06625 38.8217H2.73896V29.0642C2.73896 28.908 2.80101 28.7582 2.91147 28.6477C3.02193 28.5373 3.17174 28.4752 3.32794 28.4752C3.48415 28.4752 3.63396 28.5373 3.74442 28.6477C3.85487 28.7582 3.91693 28.908 3.91693 29.0642V38.8296H6.8265V26.0172C6.8265 25.861 6.88856 25.7112 6.99901 25.6007C7.10947 25.4903 7.25928 25.4282 7.41549 25.4282C7.57169 25.4282 7.7215 25.4903 7.83196 25.6007C7.94242 25.7112 8.00447 25.861 8.00447 26.0172V38.8296H10.914V23.9715C10.914 23.8153 10.9761 23.6655 11.0866 23.555C11.197 23.4446 11.3468 23.3825 11.503 23.3825C11.6592 23.3825 11.809 23.4446 11.9195 23.555C12.03 23.6655 12.092 23.8153 12.092 23.9715V38.8296H15.0016V28.6716C15.0016 28.5154 15.0636 28.3655 15.1741 28.2551C15.2846 28.1446 15.4344 28.0826 15.5906 28.0826C15.7468 28.0826 15.8966 28.1446 16.007 28.2551C16.1175 28.3655 16.1796 28.5154 16.1796 28.6716V38.8296H19.0931V29.0839C19.0931 28.9276 19.1551 28.7778 19.2656 28.6674C19.376 28.5569 19.5258 28.4949 19.682 28.4949C19.8382 28.4949 19.9881 28.5569 20.0985 28.6674C20.209 28.7778 20.271 28.9276 20.271 29.0839V38.8296H23.1963V26.3431C23.1963 26.1869 23.2584 26.0371 23.3688 25.9266C23.4793 25.8162 23.6291 25.7541 23.7853 25.7541C23.9415 25.7541 24.0913 25.8162 24.2018 25.9266C24.3122 26.0371 24.3743 26.1869 24.3743 26.3431V38.8296H27.2838V21.9454C27.2838 21.7892 27.3459 21.6394 27.4564 21.5289C27.5668 21.4185 27.7166 21.3564 27.8728 21.3564C28.029 21.3564 28.1788 21.4185 28.2893 21.5289C28.3998 21.6394 28.4618 21.7892 28.4618 21.9454V38.8296H31.3714V17.8146C31.3714 17.7373 31.3866 17.6607 31.4162 17.5893C31.4458 17.5178 31.4892 17.4529 31.5439 17.3982C31.5986 17.3435 31.6635 17.3001 31.735 17.2705C31.8064 17.2409 31.883 17.2257 31.9604 17.2257C32.0377 17.2257 32.1143 17.2409 32.1858 17.2705C32.2572 17.3001 32.3222 17.3435 32.3768 17.3982C32.4315 17.4529 32.4749 17.5178 32.5045 17.5893C32.5341 17.6607 32.5494 17.7373 32.5494 17.8146V38.8178H35.4589V9.64742C35.4589 9.49121 35.521 9.3414 35.6314 9.23094C35.7419 9.12049 35.8917 9.05843 36.0479 9.05843C36.2041 9.05843 36.3539 9.12049 36.4644 9.23094C36.5748 9.3414 36.6369 9.49121 36.6369 9.64742V38.8296H38.3253C38.4802 38.8295 38.6288 38.8905 38.739 38.9993C38.8493 39.108 38.9122 39.2558 38.9143 39.4107ZM1.21938 24.9178L12.1627 18.9219L16.9177 25.2319C16.973 25.3046 17.0443 25.3637 17.1259 25.4045C17.2076 25.4453 17.2976 25.4669 17.3889 25.4675C17.5171 25.4678 17.6416 25.425 17.7423 25.3458L32.0232 14.5713C32.088 14.5259 32.1429 14.4678 32.1848 14.4006C32.2266 14.3334 32.2545 14.2585 32.2667 14.1803C32.279 14.1022 32.2753 14.0223 32.256 13.9455C32.2367 13.8688 32.2022 13.7967 32.1544 13.7336C32.1066 13.6705 32.0466 13.6177 31.9779 13.5783C31.9093 13.539 31.8334 13.5138 31.7548 13.5044C31.6763 13.495 31.5966 13.5015 31.5206 13.5236C31.4446 13.5457 31.3738 13.5828 31.3125 13.6329L17.5028 24.0539L12.7792 17.8146C12.6933 17.7024 12.5702 17.6244 12.4319 17.5949C12.2937 17.5654 12.1495 17.5862 12.0253 17.6537L0.638255 23.9008C0.570448 23.9382 0.510669 23.9886 0.462329 24.049C0.41399 24.1095 0.378038 24.179 0.356526 24.2533C0.335014 24.3277 0.328363 24.4056 0.336952 24.4826C0.345542 24.5595 0.369205 24.634 0.406589 24.7018C0.482089 24.8388 0.608897 24.9401 0.759117 24.9836C0.833498 25.0051 0.911389 25.0117 0.98834 25.0031C1.06529 24.9945 1.1398 24.9709 1.20761 24.9335L1.21938 24.9178ZM15.4924 8.45374C15.4924 7.63676 15.7347 6.83813 16.1886 6.15883C16.6425 5.47953 17.2876 4.95009 18.0424 4.63744C18.7972 4.3248 19.6277 4.24299 20.429 4.40238C21.2303 4.56177 21.9663 4.95518 22.544 5.53287C23.1217 6.11057 23.5151 6.84659 23.6745 7.64788C23.8339 8.44916 23.7521 9.27971 23.4394 10.0345C23.1268 10.7893 22.5973 11.4344 21.9181 11.8883C21.2388 12.3422 20.4401 12.5845 19.6231 12.5845C18.5282 12.5824 17.4788 12.1465 16.7046 11.3723C15.9304 10.5981 15.4945 9.54865 15.4924 8.45374ZM17.4282 8.45374C17.4292 9.0352 17.6609 9.59248 18.0725 10.0033C18.484 10.414 19.0417 10.6448 19.6231 10.6448C19.7549 10.6458 19.8864 10.634 20.0158 10.6094C20.2372 10.7918 20.5143 10.893 20.8011 10.8961C21.1378 10.895 21.4604 10.7605 21.6982 10.5221C21.9359 10.2836 22.0694 9.96059 22.0694 9.62386C22.0672 9.33687 21.966 9.05944 21.7827 8.83855C21.8071 8.7091 21.8189 8.57761 21.8181 8.44589C21.8306 8.1501 21.7832 7.85483 21.6786 7.57785C21.574 7.30087 21.4145 7.04791 21.2096 6.83419C21.0048 6.62046 20.7588 6.45039 20.4865 6.33421C20.2142 6.21803 19.9212 6.15813 19.6251 6.15813C19.329 6.15813 19.036 6.21803 18.7637 6.33421C18.4914 6.45039 18.2454 6.62046 18.0406 6.83419C17.8357 7.04791 17.6762 7.30087 17.5716 7.57785C17.4671 7.85483 17.4196 8.1501 17.4321 8.44589L17.4282 8.45374ZM19.5446 9.45894C19.5842 9.18716 19.7115 8.93574 19.9071 8.74295C20.1028 8.55017 20.356 8.42655 20.6283 8.39092C20.6135 8.19755 20.5436 8.01249 20.4267 7.85772C20.3098 7.70296 20.151 7.58499 19.9691 7.51783C19.7871 7.45067 19.5897 7.43715 19.4003 7.47887C19.2109 7.52058 19.0375 7.61578 18.9006 7.75316C18.7637 7.89054 18.6692 8.06433 18.6281 8.25387C18.5871 8.44342 18.6013 8.64076 18.6691 8.82245C18.737 9.00414 18.8555 9.16255 19.0107 9.27885C19.1659 9.39516 19.3512 9.46448 19.5446 9.47857V9.45894ZM8.01232 8.88174C7.95708 8.82525 7.91369 8.75829 7.88469 8.68479C7.8557 8.61129 7.84169 8.53274 7.84348 8.45374C7.84304 8.37353 7.85921 8.29409 7.89097 8.22043C7.92273 8.14678 7.9694 8.08049 8.02803 8.02575L13.6155 2.7249C15.2387 1.18894 17.3885 0.333008 19.6231 0.333008C21.8578 0.333008 24.0076 1.18894 25.6308 2.7249L31.234 8.02575C31.2898 8.08184 31.3335 8.14873 31.3625 8.22233C31.3916 8.29592 31.4053 8.37467 31.4028 8.45374C31.4025 8.53385 31.3861 8.61308 31.3543 8.68664C31.3226 8.7602 31.2763 8.82657 31.2183 8.88174L25.6308 14.1826C24.0063 15.7159 21.857 16.5701 19.6231 16.5701C17.3893 16.5701 15.24 15.7159 13.6155 14.1826L8.01232 8.88174ZM14.2948 8.45374C14.2956 9.5027 14.6071 10.5279 15.19 11.4C15.773 12.272 16.6012 12.9519 17.5702 13.3536C18.5391 13.7554 19.6054 13.8611 20.6344 13.6574C21.6634 13.4537 22.609 12.9498 23.3518 12.2091C24.0946 11.4685 24.6014 10.5244 24.8081 9.49603C25.0148 8.46765 24.9123 7.40107 24.5133 6.43093C24.1144 5.46078 23.4371 4.63056 22.5667 4.04505C21.6964 3.45954 20.6721 3.145 19.6231 3.14112C18.2151 3.1432 16.8655 3.70371 15.8702 4.69968C14.875 5.69566 14.3155 7.04575 14.3144 8.45374H14.2948Z" fill="white"/>
</g>
</svg>
