<svg width="40" height="40" viewBox="0 0 40 40" fill="none" xmlns="http://www.w3.org/2000/svg">
<g id="Middle men">
<path id="Vector" d="M24.2532 29.7568C24.2183 29.7566 24.188 29.7681 24.1622 29.7913L21.7435 32.2133L19.3216 29.7913C19.2979 29.7681 19.2686 29.7566 19.2338 29.7568C19.1989 29.7566 19.1686 29.7681 19.1428 29.7913C19.1196 29.8171 19.1081 29.8474 19.1083 29.8823C19.1081 29.9172 19.1196 29.9465 19.1428 29.9702L21.5646 32.3921L19.1428 34.8109C19.1196 34.8367 19.1081 34.867 19.1083 34.9019C19.1081 34.9368 19.1196 34.9661 19.1428 34.9898C19.1686 35.0151 19.1989 35.0276 19.2338 35.0274C19.2686 35.0276 19.2979 35.0151 19.3216 34.9898L21.7435 32.5709L24.1622 34.9898C24.188 35.0151 24.2183 35.0276 24.2532 35.0274C24.288 35.0276 24.3173 35.0151 24.341 34.9898C24.3663 34.9661 24.3789 34.9368 24.3786 34.9019C24.3789 34.867 24.3663 34.8367 24.341 34.8109L21.9223 32.3921L24.341 29.9702C24.3663 29.9465 24.3789 29.9172 24.3786 29.8823C24.3789 29.8474 24.3663 29.8171 24.341 29.7913C24.3173 29.7681 24.288 29.7566 24.2532 29.7568Z" fill="#0D0E0F" stroke="white" stroke-width="0.5"/>
<path id="Vector_2" fill-rule="evenodd" clip-rule="evenodd" d="M27.2797 39.0166H39.4331C39.742 39.0166 39.9716 38.7374 39.9117 38.4346C39.3064 35.3673 36.6019 33.0538 33.3566 33.0538C30.1114 33.0538 27.4068 35.3673 26.8015 38.4346C26.7412 38.7374 26.9708 39.0166 27.2797 39.0166ZM8.59102 23.1514C13.1515 23.1514 16.8487 26.8485 16.8487 31.409C16.8487 35.9695 13.1515 39.6667 8.59102 39.6667C4.03053 39.6667 0.333374 35.9695 0.333374 31.409C0.333374 26.8485 4.03053 23.1514 8.59102 23.1514ZM8.59102 26.1709C7.10776 26.1709 5.90496 27.3733 5.90496 28.8569C5.90496 30.3402 7.10733 31.543 8.59102 31.543C10.0743 31.543 11.2771 30.3406 11.2771 28.8569C11.2766 27.3733 10.0743 26.1709 8.59102 26.1709ZM13.6943 36.1375C14.845 34.8964 15.5481 33.2348 15.5481 31.409C15.5481 27.5667 12.4334 24.452 8.59102 24.452C4.74868 24.452 1.63397 27.5667 1.63397 31.409C1.63397 33.2348 2.33747 34.8964 3.48772 36.1375C4.12832 33.9232 6.17033 32.3042 8.59102 32.3042C11.0113 32.3038 13.0537 33.9232 13.6943 36.1375ZM19.4813 12.2529V13.2283C19.4813 13.3179 19.4085 13.3907 19.3189 13.3907H18.3435C18.2539 13.3907 18.1811 13.3179 18.1811 13.2283V12.2529C18.1811 12.1633 18.2539 12.0905 18.3435 12.0905H19.3189C19.4085 12.0905 19.4813 12.1637 19.4813 12.2529ZM19.4813 14.9019V15.8773C19.4813 15.9669 19.4085 16.0397 19.3189 16.0397H18.3435C18.2539 16.0397 18.1811 15.9669 18.1811 15.8773V14.9019C18.1811 14.8123 18.2539 14.7395 18.3435 14.7395H19.3189C19.4085 14.7391 19.4813 14.8123 19.4813 14.9019ZM19.4813 9.60433V10.5797C19.4813 10.6693 19.4085 10.7421 19.3189 10.7421H18.3435C18.2539 10.7421 18.1811 10.6693 18.1811 10.5797V9.60433C18.1811 9.51473 18.2539 9.44192 18.3435 9.44192H19.3189C19.4085 9.44192 19.4813 9.51473 19.4813 9.60433ZM35.8523 12.2529V13.2283C35.8523 13.3179 35.7795 13.3907 35.6899 13.3907H34.7145C34.6249 13.3907 34.5521 13.3179 34.5521 13.2283V12.2529C34.5521 12.1633 34.6249 12.0905 34.7145 12.0905H35.6899C35.7795 12.0905 35.8523 12.1637 35.8523 12.2529ZM35.8523 14.9019V15.8773C35.8523 15.9669 35.7795 16.0397 35.6899 16.0397H34.7145C34.6249 16.0397 34.5521 15.9669 34.5521 15.8773V14.9019C34.5521 14.8123 34.6249 14.7395 34.7145 14.7395H35.6899C35.7795 14.7391 35.8523 14.8123 35.8523 14.9019ZM35.8523 9.60433V10.5797C35.8523 10.6693 35.7795 10.7421 35.6899 10.7421H34.7145C34.6249 10.7421 34.5521 10.6693 34.5521 10.5797V9.60433C34.5521 9.51473 34.6249 9.44192 34.7145 9.44192H35.6899C35.7795 9.44192 35.8523 9.51473 35.8523 9.60433ZM26.5288 10.6223H27.5042C27.5938 10.6223 27.6666 10.6951 27.6666 10.7847V11.7601C27.6666 11.8497 27.5938 11.9225 27.5042 11.9225H26.5288C26.4392 11.9225 26.3664 11.8497 26.3664 11.7601V10.7847C26.3664 10.6951 26.4396 10.6223 26.5288 10.6223ZM29.1778 10.6223H30.1532C30.2428 10.6223 30.3156 10.6951 30.3156 10.7847V11.7601C30.3156 11.8497 30.2428 11.9225 30.1532 11.9225H29.1778C29.0882 11.9225 29.0154 11.8497 29.0154 11.7601V10.7847C29.015 10.6951 29.0882 10.6223 29.1778 10.6223ZM23.8802 10.6223H24.8556C24.9452 10.6223 25.018 10.6951 25.018 10.7847V11.7601C25.018 11.8497 24.9452 11.9225 24.8556 11.9225H23.8802C23.7906 11.9225 23.7178 11.8497 23.7178 11.7601V10.7847C23.7178 10.6951 23.7906 10.6223 23.8802 10.6223ZM26.5288 8.25893H27.5042C27.5938 8.25893 27.6666 8.33174 27.6666 8.42135V9.39669C27.6666 9.48629 27.5938 9.5591 27.5042 9.5591H26.5288C26.4392 9.5591 26.3664 9.48629 26.3664 9.39669V8.42135C26.3664 8.33217 26.4396 8.25893 26.5288 8.25893ZM29.1778 8.25893H30.1532C30.2428 8.25893 30.3156 8.33174 30.3156 8.42135V9.39669C30.3156 9.48629 30.2428 9.5591 30.1532 9.5591H29.1778C29.0882 9.5591 29.0154 9.48629 29.0154 9.39669V8.42135C29.015 8.33217 29.0882 8.25893 29.1778 8.25893ZM23.8802 8.25893H24.8556C24.9452 8.25893 25.018 8.33174 25.018 8.42135V9.39669C25.018 9.48629 24.9452 9.5591 24.8556 9.5591H23.8802C23.7906 9.5591 23.7178 9.48629 23.7178 9.39669V8.42135C23.7178 8.33217 23.7906 8.25893 23.8802 8.25893ZM26.5288 5.89598H27.5042C27.5938 5.89598 27.6666 5.96878 27.6666 6.05839V7.03373C27.6666 7.12334 27.5938 7.19614 27.5042 7.19614H26.5288C26.4392 7.19614 26.3664 7.12334 26.3664 7.03373V6.05839C26.3664 5.96878 26.4396 5.89598 26.5288 5.89598ZM29.1778 5.89598H30.1532C30.2428 5.89598 30.3156 5.96878 30.3156 6.05839V7.03373C30.3156 7.12334 30.2428 7.19614 30.1532 7.19614H29.1778C29.0882 7.19614 29.0154 7.12334 29.0154 7.03373V6.05839C29.015 5.96878 29.0882 5.89598 29.1778 5.89598ZM23.8802 5.89598H24.8556C24.9452 5.89598 25.018 5.96878 25.018 6.05839V7.03373C25.018 7.12334 24.9452 7.19614 24.8556 7.19614H23.8802C23.7906 7.19614 23.7178 7.12334 23.7178 7.03373V6.05839C23.7178 5.96878 23.7906 5.89598 23.8802 5.89598ZM26.5288 3.53259H27.5042C27.5938 3.53259 27.6666 3.60539 27.6666 3.695V4.67034C27.6666 4.75995 27.5938 4.83275 27.5042 4.83275H26.5288C26.4392 4.83275 26.3664 4.75995 26.3664 4.67034V3.69543C26.3664 3.60583 26.4396 3.53259 26.5288 3.53259ZM29.1778 3.53259H30.1532C30.2428 3.53259 30.3156 3.60539 30.3156 3.695V4.67034C30.3156 4.75995 30.2428 4.83275 30.1532 4.83275H29.1778C29.0882 4.83275 29.0154 4.75995 29.0154 4.67034V3.69543C29.015 3.60583 29.0882 3.53259 29.1778 3.53259ZM23.8802 3.53259H24.8556C24.9452 3.53259 25.018 3.60539 25.018 3.695V4.67034C25.018 4.75995 24.9452 4.83275 24.8556 4.83275H23.8802C23.7906 4.83275 23.7178 4.75995 23.7178 4.67034V3.69543C23.7178 3.60583 23.7906 3.53259 23.8802 3.53259ZM29.7094 0.722458V0H24.3679V0.722458H29.7094ZM22.3246 2.02305C22.1006 2.02305 21.9184 2.20571 21.9184 2.4293V18.4074H24.8306V13.3006H29.3493V18.4074H32.115V2.4293C32.115 2.20528 31.9324 2.02305 31.7088 2.02305H22.3246ZM36.9887 18.0011V7.48047C36.9887 7.25646 36.8061 7.07423 36.5825 7.07423H33.4161V18.4074H36.5825C36.8061 18.4074 36.9887 18.2251 36.9887 18.0011ZM20.6178 18.4074V7.07423H17.4514C17.2273 7.07423 17.0451 7.25689 17.0451 7.48047V18.0011C17.0451 18.2251 17.2278 18.4074 17.4514 18.4074H20.6178ZM14.0002 8.50535C14.3595 8.50535 14.6503 8.79658 14.6503 9.15544C14.6503 9.51473 14.359 9.80552 14.0002 9.80552H9.2411V18.438L9.45435 18.1239C9.6551 17.8279 10.0575 17.7504 10.3534 17.9512C10.6494 18.1519 10.7269 18.5543 10.5262 18.8502L9.12694 20.9125C8.86458 21.2994 8.29592 21.286 8.04734 20.9013L6.65585 18.8502C6.45509 18.5543 6.53264 18.1515 6.8286 17.9512C7.12456 17.7504 7.52736 17.8279 7.72769 18.1239L7.94093 18.438V9.15587C7.94093 8.79658 8.23216 8.50578 8.59102 8.50578L14.0002 8.50535ZM33.3562 25.3799C35.222 25.3799 36.7346 26.8925 36.7346 28.7583C36.7346 30.6241 35.222 32.1367 33.3562 32.1367C31.4904 32.1367 29.9778 30.6241 29.9778 28.7583C29.9778 26.8929 31.4904 25.3799 33.3562 25.3799Z" fill="white"/>
</g>
</svg>
