<svg width="19" height="18" viewBox="0 0 19 18" fill="none" xmlns="http://www.w3.org/2000/svg">
<path fill-rule="evenodd" clip-rule="evenodd" d="M11.1274 0.58425L17.0914 5.58535C17.1459 5.63095 17.1989 5.67492 17.2505 5.71772C18.0593 6.38816 18.5214 6.77124 18.5205 8.65029V14.9993C18.5205 16.9993 17.5205 17.9993 15.5205 17.9993H3.52051C1.52051 17.9993 0.520508 16.9993 0.520508 14.9993V8.65029C0.520508 6.77243 0.983324 6.38838 1.79118 5.718C1.84286 5.67511 1.89596 5.63105 1.95044 5.58535L7.91443 0.58425C8.84343 -0.19475 10.1984 -0.19475 11.1274 0.58425ZM10.3552 10.7608H8.8651C8.90685 11.5908 8.57798 12.353 8.26048 12.8851L11.5316 12.8858L11.5313 14L7.09737 13.999L6.71626 13.0891L6.752 13.0519C6.76325 13.0404 7.84011 11.9085 7.74687 10.7607H6.52051V9.64643H7.43037C7.24487 8.90282 6.92825 6.90197 8.6276 6.18548C9.05897 6.00348 9.54809 5.95423 10.0426 6.04298C10.9752 6.21023 11.9163 6.9371 11.9163 8.1842V8.26283H10.8019V8.1842C10.8019 7.33584 9.94384 7.15734 9.84596 7.13984C9.56397 7.08922 9.29284 7.11447 9.06072 7.21234C8.05961 7.63446 8.42473 9.11769 8.59223 9.64656H10.3552V10.7608Z" fill="#0D0E0F"/>
</svg>
