<svg width="21" height="17" viewBox="0 0 21 17" fill="none" xmlns="http://www.w3.org/2000/svg">
<path d="M15.7982 0H4.50275C3.30854 0 2.16325 0.474395 1.31882 1.31882C0.474395 2.16325 0 3.30854 0 4.50275L0 12.4973C0 13.6915 0.474395 14.8367 1.31882 15.6812C2.16325 16.5256 3.30854 17 4.50275 17H15.7982C16.9924 17 18.1377 16.5256 18.9821 15.6812C19.8265 14.8367 20.3009 13.6915 20.3009 12.4973V4.50275C20.3009 3.30854 19.8265 2.16325 18.9821 1.31882C18.1377 0.474395 16.9924 0 15.7982 0ZM16.527 13.3722C16.527 13.4679 16.5081 13.5627 16.4715 13.6511C16.4349 13.7395 16.3812 13.8199 16.3135 13.8876C16.2458 13.9552 16.1655 14.0089 16.0771 14.0456C15.9887 14.0822 15.8939 14.101 15.7982 14.101H4.50072C4.30778 14.1005 4.12292 14.0235 3.98669 13.8868C3.85045 13.7502 3.77394 13.5652 3.77394 13.3722V12.5602C3.77394 12.3669 3.85073 12.1815 3.9874 12.0448C4.12408 11.9082 4.30946 11.8314 4.50275 11.8314H15.8002C15.9932 11.8319 16.178 11.9089 16.3142 12.0456C16.4505 12.1822 16.527 12.3672 16.527 12.5602V13.3722ZM16.527 8.90602C16.527 9.00173 16.5081 9.0965 16.4715 9.18492C16.4349 9.27334 16.3812 9.35368 16.3135 9.42136C16.2458 9.48904 16.1655 9.54272 16.0771 9.57934C15.9887 9.61597 15.8939 9.63482 15.7982 9.63482H4.50072C4.30778 9.63428 4.12292 9.55726 3.98669 9.42064C3.85045 9.28402 3.77394 9.09896 3.77394 8.90602V8.09398C3.77394 7.90069 3.85073 7.71532 3.9874 7.57864C4.12408 7.44196 4.30946 7.36518 4.50275 7.36518H15.8002C15.9932 7.36572 16.178 7.44274 16.3142 7.57936C16.4505 7.71597 16.527 7.90104 16.527 8.09398V8.90602ZM16.527 4.32004C16.527 4.51298 16.4505 4.69804 16.3142 4.83466C16.178 4.97128 15.9932 5.0483 15.8002 5.04884H4.50072C4.30743 5.04884 4.12205 4.97206 3.98537 4.83538C3.8487 4.6987 3.77191 4.51333 3.77191 4.32004V3.508C3.77191 3.31471 3.8487 3.12934 3.98537 2.99266C4.12205 2.85598 4.30743 2.7792 4.50072 2.7792H15.8002C15.9935 2.7792 16.1789 2.85598 16.3156 2.99266C16.4522 3.12934 16.529 3.31471 16.529 3.508V4.32004H16.527Z" fill="#0D0E0F"/>
</svg>
