<svg width="34" height="44" viewBox="0 0 34 44" fill="none" xmlns="http://www.w3.org/2000/svg">
<g id="Group">
<path id="Vector" fill-rule="evenodd" clip-rule="evenodd" d="M33.0444 29.1055C33.2215 29.1868 33.3333 29.3632 33.3333 29.558V36.1215C33.3333 36.2068 33.3109 36.2918 33.2691 36.3662C31.4389 39.6185 29.9862 40.9852 27.106 42.9681C26.9367 43.0846 26.7131 43.0846 26.5439 42.968C23.6642 40.9852 22.2114 39.6185 20.3813 36.3662C20.3394 36.2918 20.317 36.2068 20.317 36.1215V29.5582C20.317 29.3633 20.429 29.1868 20.6062 29.1055C21.7911 28.5614 25.6811 26.7813 26.6187 26.3524C26.7507 26.2919 26.8959 26.2919 27.0279 26.3523C27.9658 26.7811 31.8585 28.561 33.0444 29.1055ZM5.83509 5.53734C6.11123 5.53734 6.33509 5.31348 6.33509 5.03734V3.92347C6.33509 3.64733 6.55895 3.42347 6.83509 3.42347H10.0084C10.2686 3.42347 10.4819 3.22185 10.5308 2.96623C11.281 -0.960934 17.2199 -1.01656 17.9717 2.96654C18.0199 3.22214 18.2333 3.42347 18.4934 3.42347H21.6669C21.9431 3.42347 22.1669 3.64733 22.1669 3.92347V5.03734C22.1669 5.31348 22.3908 5.53734 22.6669 5.53734H27.3349C27.611 5.53734 27.8349 5.7612 27.8349 6.03734V24.8155C27.8349 25.1801 27.4572 25.4221 27.1259 25.2698L27.0322 25.2267C26.8996 25.1657 26.7469 25.1657 26.6143 25.2267L26.4926 25.2827C26.1613 25.4351 25.7836 25.1931 25.7836 24.8284V8.08913C25.7836 7.81299 25.5598 7.58913 25.2836 7.58913H22.6669C22.3908 7.58913 22.1669 7.81299 22.1669 8.08913V9.40326C22.1669 9.6794 21.9431 9.90326 21.6669 9.90326H6.83509C6.55895 9.90326 6.33509 9.6794 6.33509 9.40326V8.08913C6.33509 7.81299 6.11123 7.58913 5.83509 7.58913H3.21841C2.94227 7.58913 2.71841 7.81299 2.71841 8.08913V38.7043C2.71841 38.9804 2.94227 39.2043 3.21841 39.2043H20.7083C20.8687 39.2043 21.019 39.2815 21.115 39.4101C21.3595 39.7375 21.6149 40.0544 21.8826 40.3608C22.1783 40.6991 21.9471 41.2561 21.4977 41.2561H1.16663C0.890483 41.2561 0.666626 41.0322 0.666626 40.7561V6.03734C0.666626 5.7612 0.890484 5.53734 1.16663 5.53734H5.83509ZM5.57235 13.6021C5.57235 13.326 5.79621 13.1021 6.07235 13.1021H22.4405C22.7166 13.1021 22.9405 13.326 22.9405 13.6021V14.7408C22.9405 15.017 22.7166 15.2408 22.4405 15.2408H6.07235C5.79621 15.2408 5.57235 15.017 5.57235 14.7408V13.6021ZM5.57235 17.7241C5.57235 17.4479 5.79621 17.2241 6.07235 17.2241H22.4405C22.7166 17.2241 22.9405 17.4479 22.9405 17.7241V18.8628C22.9405 19.1389 22.7166 19.3628 22.4405 19.3628H6.07235C5.79621 19.3628 5.57235 19.1389 5.57235 18.8628V17.7241ZM5.57235 25.9679C5.57235 25.6918 5.79621 25.4679 6.07235 25.4679H22.4405C22.7166 25.4679 22.9405 25.6918 22.9405 25.9679V26.5892C22.9405 26.7848 22.8264 26.9625 22.6485 27.0439L21.5162 27.5618C21.4509 27.5917 21.38 27.6072 21.3082 27.6072H6.07235C5.79621 27.6072 5.57235 27.3833 5.57235 27.1072V25.9679ZM5.57235 21.846C5.57235 21.5698 5.79621 21.346 6.07235 21.346H22.4405C22.7166 21.346 22.9405 21.5698 22.9405 21.846V22.9852C22.9405 23.2614 22.7166 23.4852 22.4405 23.4852H6.07235C5.79621 23.4852 5.57235 23.2614 5.57235 22.9852V21.846ZM5.57235 30.0904C5.57235 29.8142 5.79621 29.5904 6.07235 29.5904H18.7909C19.067 29.5904 19.2909 29.8142 19.2909 30.0904V31.2291C19.2909 31.5052 19.067 31.7291 18.7909 31.7291H6.07235C5.79621 31.7291 5.57235 31.5052 5.57235 31.2291V30.0904ZM5.57235 34.2123C5.57235 33.9362 5.79621 33.7123 6.07235 33.7123H18.7909C19.067 33.7123 19.2909 33.9362 19.2909 34.2123V35.351C19.2909 35.6272 19.067 35.851 18.7909 35.851H6.07235C5.79621 35.851 5.57235 35.6272 5.57235 35.351V34.2123ZM22.988 34.888C22.3667 34.2662 23.3119 33.321 23.9337 33.9428L25.6549 35.6644C25.8572 35.8668 26.188 35.8584 26.3797 35.6458L29.6934 31.9725C30.2802 31.321 31.2723 32.2133 30.6861 32.8654L26.5701 37.4272C26.3202 37.7344 25.8592 37.7592 25.5785 37.4785L22.988 34.888Z" fill="white"/>
</g>
</svg>
